<svg width="20" height="20" viewBox="0 0 20 20" fill="none" xmlns="http://www.w3.org/2000/svg">
<g clip-path="url(#clip0_604_9070)">
<path fill-rule="evenodd" clip-rule="evenodd" d="M10.0026 17.5026C14.1447 17.5026 17.5026 14.1447 17.5026 10.0026C17.5026 5.86047 14.1447 2.5026 10.0026 2.5026C5.86047 2.5026 2.5026 5.86047 2.5026 10.0026C2.5026 14.1447 5.86047 17.5026 10.0026 17.5026ZM10.0026 19.1693C15.0652 19.1693 19.1693 15.0652 19.1693 10.0026C19.1693 4.93999 15.0652 0.835938 10.0026 0.835938C4.93999 0.835938 0.835938 4.93999 0.835938 10.0026C0.835938 15.0652 4.93999 19.1693 10.0026 19.1693Z" fill="#494949"/>
<path d="M12.9141 8.7526C12.9141 10.3568 11.6016 11.6693 9.9974 11.6693C8.39323 11.6693 7.08073 10.3568 7.08073 8.7526C7.08073 7.14844 8.39323 5.83594 9.9974 5.83594C11.6016 5.83594 12.9141 7.14844 12.9141 8.7526Z" fill="#494949"/>
<path d="M14.0516 13.9734C15.1307 14.4401 15.8307 15.4901 15.8307 16.6714V17.5026H4.16406V16.6714C4.16406 15.4901 4.86406 14.4401 5.94323 13.9734C7.18281 13.4339 8.55365 13.1276 9.9974 13.1276C11.4411 13.1276 12.812 13.4339 14.0516 13.9734Z" fill="#494949"/>
</g>
<defs>
<clipPath id="clip0_604_9070">
<rect width="20" height="20" fill="white"/>
</clipPath>
</defs>
</svg>
