<svg width="24" height="24" viewBox="0 0 24 24" fill="none" xmlns="http://www.w3.org/2000/svg">
<path d="M11.8772 20C11.9439 20 12.0105 19.9833 12.0772 19.95C12.1439 19.9167 12.1939 19.8833 12.2272 19.85L20.4272 11.65C20.6272 11.45 20.773 11.225 20.8647 10.975C20.9564 10.725 21.0022 10.475 21.0022 10.225C21.0022 9.95833 20.9564 9.70417 20.8647 9.4625C20.773 9.22083 20.6272 9.00833 20.4272 8.825L16.1772 4.575C15.9939 4.375 15.7814 4.22917 15.5397 4.1375C15.298 4.04583 15.0439 4 14.7772 4C14.5272 4 14.2772 4.04583 14.0272 4.1375C13.7772 4.22917 13.5522 4.375 13.3522 4.575L13.0772 4.85L14.9272 6.725C15.1772 6.95833 15.3605 7.225 15.4772 7.525C15.5939 7.825 15.6522 8.14167 15.6522 8.475C15.6522 9.175 15.4147 9.7625 14.9397 10.2375C14.4647 10.7125 13.8772 10.95 13.1772 10.95C12.8439 10.95 12.523 10.8917 12.2147 10.775C11.9064 10.6583 11.6355 10.4833 11.4022 10.25L9.52719 8.4L5.15219 12.775C5.10219 12.825 5.06469 12.8792 5.03969 12.9375C5.01469 12.9958 5.00219 13.0583 5.00219 13.125C5.00219 13.2583 5.05219 13.3792 5.15219 13.4875C5.25219 13.5958 5.36885 13.65 5.50219 13.65C5.56885 13.65 5.63552 13.6333 5.70219 13.6C5.76885 13.5667 5.81885 13.5333 5.85219 13.5L9.25219 10.1L10.6522 11.5L7.27719 14.9C7.22719 14.95 7.18969 15.0042 7.16469 15.0625C7.13969 15.1208 7.12719 15.1833 7.12719 15.25C7.12719 15.3833 7.17719 15.5 7.27719 15.6C7.37719 15.7 7.49385 15.75 7.62719 15.75C7.69385 15.75 7.76052 15.7333 7.82719 15.7C7.89385 15.6667 7.94385 15.6333 7.97719 15.6L11.3772 12.225L12.7772 13.625L9.40219 17.025C9.35219 17.0583 9.31469 17.1083 9.28969 17.175C9.26469 17.2417 9.25219 17.3083 9.25219 17.375C9.25219 17.5083 9.30219 17.625 9.40219 17.725C9.50219 17.825 9.61885 17.875 9.75219 17.875C9.81885 17.875 9.88135 17.8625 9.93969 17.8375C9.99802 17.8125 10.0522 17.775 10.1022 17.725L13.5022 14.35L14.9022 15.75L11.5022 19.15C11.4522 19.2 11.4147 19.2542 11.3897 19.3125C11.3647 19.3708 11.3522 19.4333 11.3522 19.5C11.3522 19.6333 11.4064 19.75 11.5147 19.85C11.623 19.95 11.7439 20 11.8772 20ZM11.8522 22C11.2355 22 10.6897 21.7958 10.2147 21.3875C9.73969 20.9792 9.46052 20.4667 9.37719 19.85C8.81052 19.7667 8.33552 19.5333 7.95219 19.15C7.56885 18.7667 7.33552 18.2917 7.25219 17.725C6.68552 17.6417 6.21469 17.4042 5.83969 17.0125C5.46469 16.6208 5.23552 16.15 5.15219 15.6C4.51885 15.5167 4.00219 15.2417 3.60219 14.775C3.20219 14.3083 3.00219 13.7583 3.00219 13.125C3.00219 12.7917 3.06469 12.4708 3.18969 12.1625C3.31469 11.8542 3.49385 11.5833 3.72719 11.35L9.52719 5.575L12.8022 8.85C12.8355 8.9 12.8855 8.9375 12.9522 8.9625C13.0189 8.9875 13.0855 9 13.1522 9C13.3022 9 13.4272 8.95417 13.5272 8.8625C13.6272 8.77083 13.6772 8.65 13.6772 8.5C13.6772 8.43333 13.6647 8.36667 13.6397 8.3C13.6147 8.23333 13.5772 8.18333 13.5272 8.15L9.95219 4.575C9.76885 4.375 9.55635 4.22917 9.31469 4.1375C9.07302 4.04583 8.81885 4 8.55219 4C8.30219 4 8.05219 4.04583 7.80219 4.1375C7.55219 4.22917 7.32719 4.375 7.12719 4.575L3.60219 8.125C3.45219 8.275 3.32719 8.45 3.22719 8.65C3.12719 8.85 3.06052 9.05 3.02719 9.25C2.99385 9.45 2.99385 9.65417 3.02719 9.8625C3.06052 10.0708 3.12719 10.2667 3.22719 10.45L1.77719 11.9C1.49385 11.5167 1.28552 11.0958 1.15219 10.6375C1.01885 10.1792 0.968854 9.71667 1.00219 9.25C1.03552 8.78333 1.15219 8.32917 1.35219 7.8875C1.55219 7.44583 1.82719 7.05 2.17719 6.7L5.70219 3.175C6.10219 2.79167 6.54802 2.5 7.03969 2.3C7.53135 2.1 8.03552 2 8.55219 2C9.06885 2 9.57302 2.1 10.0647 2.3C10.5564 2.5 10.9939 2.79167 11.3772 3.175L11.6522 3.45L11.9272 3.175C12.3272 2.79167 12.773 2.5 13.2647 2.3C13.7564 2.1 14.2605 2 14.7772 2C15.2939 2 15.798 2.1 16.2897 2.3C16.7814 2.5 17.2189 2.79167 17.6022 3.175L21.8272 7.4C22.2105 7.78333 22.5022 8.225 22.7022 8.725C22.9022 9.225 23.0022 9.73333 23.0022 10.25C23.0022 10.7667 22.9022 11.2708 22.7022 11.7625C22.5022 12.2542 22.2105 12.6917 21.8272 13.075L13.6272 21.25C13.3939 21.4833 13.123 21.6667 12.8147 21.8C12.5064 21.9333 12.1855 22 11.8522 22Z" fill="#7A7A7A"/>
</svg>
