<svg xmlns="http://www.w3.org/2000/svg" width="24" height="24" viewBox="0 0 24 24" fill="none">
  <path fill-rule="evenodd" clip-rule="evenodd" d="M4.69 6.52187L2.01 3.84187L3.42 2.42188L21.15 20.1619L19.74 21.5719L16.32 18.1519C14.98 18.6819 13.52 18.9719 12 18.9719C7 18.9719 2.73 15.8619 1 11.4719C1.77 9.50187 3.06 7.80188 4.69 6.52187ZM12 5.97187C15.79 5.97187 19.17 8.10188 20.82 11.4719C20.23 12.6919 19.4 13.7419 18.41 14.5919L19.82 16.0019C21.21 14.7719 22.31 13.2319 23 11.4719C21.27 7.08187 17 3.97187 12 3.97187C10.73 3.97187 9.51 4.17188 8.36 4.54187L10.01 6.19187C10.66 6.06187 11.32 5.97187 12 5.97187ZM10.93 7.11188L13 9.18188C13.57 9.43188 14.03 9.89188 14.28 10.4619L16.35 12.5319C16.43 12.1919 16.49 11.8319 16.49 11.4619C16.5 8.98187 14.48 6.97188 12 6.97188C11.63 6.97188 11.28 7.02188 10.93 7.11188ZM9.51 11.3419L12.12 13.9519C12.08 13.9619 12.04 13.9719 12 13.9719C10.62 13.9719 9.5 12.8519 9.5 11.4719C9.5 11.4469 9.5025 11.4269 9.505 11.4069L9.505 11.4069L9.505 11.4069C9.5075 11.3869 9.51 11.3669 9.51 11.3419ZM7.86 9.69187L6.11 7.94187C4.9 8.86188 3.88 10.0419 3.18 11.4719C4.83 14.8419 8.21 16.9719 12 16.9719C12.95 16.9719 13.87 16.8319 14.75 16.5919L13.77 15.6119C13.23 15.8419 12.63 15.9719 12 15.9719C9.52 15.9719 7.5 13.9519 7.5 11.4719C7.5 10.8419 7.63 10.2419 7.86 9.69187Z" fill="#7A7A7A"/>
</svg>