<svg width="24" height="24" viewBox="0 0 24 24" fill="none" xmlns="http://www.w3.org/2000/svg">
<path fill-rule="evenodd" clip-rule="evenodd" d="M14.9678 14.2578H15.7578L20.7478 19.2578L19.2578 20.7478L14.2578 15.7578V14.9678L13.9878 14.6878C12.8478 15.6678 11.3678 16.2578 9.75781 16.2578C6.16781 16.2578 3.25781 13.3478 3.25781 9.75781C3.25781 6.16781 6.16781 3.25781 9.75781 3.25781C13.3478 3.25781 16.2578 6.16781 16.2578 9.75781C16.2578 11.3678 15.6678 12.8478 14.6878 13.9878L14.9678 14.2578ZM5.25781 9.75781C5.25781 12.2478 7.26781 14.2578 9.75781 14.2578C12.2478 14.2578 14.2578 12.2478 14.2578 9.75781C14.2578 7.26781 12.2478 5.25781 9.75781 5.25781C7.26781 5.25781 5.25781 7.26781 5.25781 9.75781Z" fill="#BDBDBD"/>
</svg>
