<svg width="24" height="24" viewBox="0 0 24 24" fill="none" xmlns="http://www.w3.org/2000/svg">
<g clip-path="url(#clip0_1144_8104)">
<path fill-rule="evenodd" clip-rule="evenodd" d="M12 21C16.9706 21 21 16.9706 21 12C21 7.02944 16.9706 3 12 3C7.02944 3 3 7.02944 3 12C3 16.9706 7.02944 21 12 21ZM12 23C18.0751 23 23 18.0751 23 12C23 5.92487 18.0751 1 12 1C5.92487 1 1 5.92487 1 12C1 18.0751 5.92487 23 12 23Z" fill="#7A7A7A"/>
<path d="M15.5 10.5C15.5 12.425 13.925 14 12 14C10.075 14 8.5 12.425 8.5 10.5C8.5 8.575 10.075 7 12 7C13.925 7 15.5 8.575 15.5 10.5Z" fill="#7A7A7A"/>
<path d="M16.865 16.765C18.16 17.325 19 18.585 19 20.0025V21H5V20.0025C5 18.585 5.84 17.325 7.135 16.765C8.6225 16.1175 10.2675 15.75 12 15.75C13.7325 15.75 15.3775 16.1175 16.865 16.765Z" fill="#7A7A7A"/>
</g>
<defs>
<clipPath id="clip0_1144_8104">
<rect width="24" height="24" fill="white"/>
</clipPath>
</defs>
</svg>
